<mxfile host="app.diagrams.net" modified="2022-05-30T06:17:12.138Z" agent="5.0 (Windows NT 10.0; Win64; x64) AppleWebKit/537.36 (KHTML, like Gecko) Chrome/101.0.4951.67 Safari/537.36" etag="NSAQGUonm-uXCyRUf1QL" version="18.1.3" type="github">
  <diagram id="qEYKWJYB6lUPqcc3MonS" name="Page-1">
    <mxGraphModel dx="1278" dy="547" grid="1" gridSize="10" guides="1" tooltips="1" connect="1" arrows="1" fold="1" page="1" pageScale="1" pageWidth="827" pageHeight="1169" math="0" shadow="0">
      <root>
        <mxCell id="0" />
        <mxCell id="1" parent="0" />
        <mxCell id="ngoMZuvS446cqqw9m6Pp-2" style="edgeStyle=orthogonalEdgeStyle;rounded=0;orthogonalLoop=1;jettySize=auto;html=1;entryX=0.5;entryY=0;entryDx=0;entryDy=0;exitX=0.5;exitY=1;exitDx=0;exitDy=0;" edge="1" parent="1" source="1FDm_MmRjg4e-9KDtzbT-1" target="ngoMZuvS446cqqw9m6Pp-1">
          <mxGeometry relative="1" as="geometry" />
        </mxCell>
        <mxCell id="1FDm_MmRjg4e-9KDtzbT-1" value="开始" style="rounded=1;whiteSpace=wrap;html=1;fillColor=#f5f5f5;fontColor=#333333;strokeColor=#666666;" parent="1" vertex="1">
          <mxGeometry x="300" y="60" width="70" height="40" as="geometry" />
        </mxCell>
        <mxCell id="1FDm_MmRjg4e-9KDtzbT-2" value="结束" style="rounded=1;whiteSpace=wrap;html=1;fillColor=#f5f5f5;fontColor=#333333;strokeColor=#666666;" parent="1" vertex="1">
          <mxGeometry x="302.5" y="520" width="70" height="40" as="geometry" />
        </mxCell>
        <mxCell id="s78n-pDO02RR8vkk9_p3-1" value="" style="edgeStyle=orthogonalEdgeStyle;rounded=0;orthogonalLoop=1;jettySize=auto;html=1;" parent="1" source="1FDm_MmRjg4e-9KDtzbT-3" target="1FDm_MmRjg4e-9KDtzbT-10" edge="1">
          <mxGeometry relative="1" as="geometry" />
        </mxCell>
        <mxCell id="1FDm_MmRjg4e-9KDtzbT-3" value="举报人提交线索" style="rounded=0;whiteSpace=wrap;html=1;fillColor=#fff2cc;strokeColor=#d6b656;" parent="1" vertex="1">
          <mxGeometry x="287.5" y="140" width="100" height="40" as="geometry" />
        </mxCell>
        <mxCell id="1FDm_MmRjg4e-9KDtzbT-20" value="" style="edgeStyle=orthogonalEdgeStyle;rounded=0;orthogonalLoop=1;jettySize=auto;html=1;" parent="1" source="1FDm_MmRjg4e-9KDtzbT-5" target="1FDm_MmRjg4e-9KDtzbT-8" edge="1">
          <mxGeometry relative="1" as="geometry" />
        </mxCell>
        <mxCell id="1FDm_MmRjg4e-9KDtzbT-21" value="" style="edgeStyle=orthogonalEdgeStyle;rounded=0;orthogonalLoop=1;jettySize=auto;html=1;" parent="1" source="1FDm_MmRjg4e-9KDtzbT-5" target="1FDm_MmRjg4e-9KDtzbT-11" edge="1">
          <mxGeometry relative="1" as="geometry">
            <Array as="points">
              <mxPoint x="178" y="300" />
              <mxPoint x="178" y="300" />
            </Array>
          </mxGeometry>
        </mxCell>
        <mxCell id="1FDm_MmRjg4e-9KDtzbT-5" value="表中是否已经有&lt;br&gt;被举报人信息？" style="rhombus;whiteSpace=wrap;html=1;fillColor=#f8cecc;strokeColor=#b85450;" parent="1" vertex="1">
          <mxGeometry x="112.5" y="220" width="130" height="70" as="geometry" />
        </mxCell>
        <mxCell id="s78n-pDO02RR8vkk9_p3-3" style="edgeStyle=orthogonalEdgeStyle;rounded=0;orthogonalLoop=1;jettySize=auto;html=1;entryX=0.5;entryY=0;entryDx=0;entryDy=0;" parent="1" source="1FDm_MmRjg4e-9KDtzbT-8" target="1FDm_MmRjg4e-9KDtzbT-9" edge="1">
          <mxGeometry relative="1" as="geometry" />
        </mxCell>
        <mxCell id="1FDm_MmRjg4e-9KDtzbT-8" value="被举报计数器＋1" style="rounded=0;whiteSpace=wrap;html=1;fillColor=#fff2cc;strokeColor=#d6b656;" parent="1" vertex="1">
          <mxGeometry x="282.5" y="237.5" width="105" height="35" as="geometry" />
        </mxCell>
        <mxCell id="1FDm_MmRjg4e-9KDtzbT-32" value="" style="edgeStyle=orthogonalEdgeStyle;rounded=0;orthogonalLoop=1;jettySize=auto;html=1;" parent="1" source="1FDm_MmRjg4e-9KDtzbT-9" target="1FDm_MmRjg4e-9KDtzbT-13" edge="1">
          <mxGeometry relative="1" as="geometry" />
        </mxCell>
        <mxCell id="1FDm_MmRjg4e-9KDtzbT-9" value="生成验证码" style="rounded=0;whiteSpace=wrap;html=1;fillColor=#fff2cc;strokeColor=#d6b656;" parent="1" vertex="1">
          <mxGeometry x="282.5" y="340" width="105" height="40" as="geometry" />
        </mxCell>
        <mxCell id="1FDm_MmRjg4e-9KDtzbT-19" value="" style="edgeStyle=orthogonalEdgeStyle;rounded=0;orthogonalLoop=1;jettySize=auto;html=1;entryX=0.5;entryY=0;entryDx=0;entryDy=0;exitX=0.5;exitY=1;exitDx=0;exitDy=0;" parent="1" source="1FDm_MmRjg4e-9KDtzbT-10" target="1FDm_MmRjg4e-9KDtzbT-5" edge="1">
          <mxGeometry relative="1" as="geometry">
            <Array as="points">
              <mxPoint x="513" y="200" />
              <mxPoint x="178" y="200" />
            </Array>
          </mxGeometry>
        </mxCell>
        <mxCell id="1FDm_MmRjg4e-9KDtzbT-10" value="附件存入云存储" style="rounded=0;whiteSpace=wrap;html=1;fillColor=#fff2cc;strokeColor=#d6b656;" parent="1" vertex="1">
          <mxGeometry x="450" y="140" width="105" height="40" as="geometry" />
        </mxCell>
        <mxCell id="1FDm_MmRjg4e-9KDtzbT-31" style="edgeStyle=orthogonalEdgeStyle;rounded=0;orthogonalLoop=1;jettySize=auto;html=1;entryX=0;entryY=0.5;entryDx=0;entryDy=0;" parent="1" source="1FDm_MmRjg4e-9KDtzbT-11" target="1FDm_MmRjg4e-9KDtzbT-9" edge="1">
          <mxGeometry relative="1" as="geometry" />
        </mxCell>
        <mxCell id="1FDm_MmRjg4e-9KDtzbT-11" value="被举报人信息存入数据库" style="rounded=0;whiteSpace=wrap;html=1;fillColor=#fff2cc;strokeColor=#d6b656;" parent="1" vertex="1">
          <mxGeometry x="125" y="340" width="105" height="40" as="geometry" />
        </mxCell>
        <mxCell id="1FDm_MmRjg4e-9KDtzbT-33" style="edgeStyle=orthogonalEdgeStyle;rounded=0;orthogonalLoop=1;jettySize=auto;html=1;" parent="1" source="1FDm_MmRjg4e-9KDtzbT-13" target="1FDm_MmRjg4e-9KDtzbT-28" edge="1">
          <mxGeometry relative="1" as="geometry">
            <Array as="points">
              <mxPoint x="503" y="410" />
              <mxPoint x="178" y="410" />
            </Array>
          </mxGeometry>
        </mxCell>
        <mxCell id="1FDm_MmRjg4e-9KDtzbT-13" value="线索和相应的附件信息存入数据库" style="rounded=0;whiteSpace=wrap;html=1;fillColor=#fff2cc;strokeColor=#d6b656;" parent="1" vertex="1">
          <mxGeometry x="450" y="340" width="105" height="40" as="geometry" />
        </mxCell>
        <mxCell id="1FDm_MmRjg4e-9KDtzbT-25" value="是" style="text;html=1;strokeColor=none;fillColor=none;align=center;verticalAlign=middle;whiteSpace=wrap;rounded=0;" parent="1" vertex="1">
          <mxGeometry x="222.5" y="230" width="60" height="30" as="geometry" />
        </mxCell>
        <mxCell id="1FDm_MmRjg4e-9KDtzbT-26" value="否" style="text;html=1;strokeColor=none;fillColor=none;align=center;verticalAlign=middle;whiteSpace=wrap;rounded=0;" parent="1" vertex="1">
          <mxGeometry x="172.5" y="290" width="40" height="30" as="geometry" />
        </mxCell>
        <mxCell id="1FDm_MmRjg4e-9KDtzbT-34" value="" style="edgeStyle=orthogonalEdgeStyle;rounded=0;orthogonalLoop=1;jettySize=auto;html=1;" parent="1" source="1FDm_MmRjg4e-9KDtzbT-28" target="1FDm_MmRjg4e-9KDtzbT-29" edge="1">
          <mxGeometry relative="1" as="geometry" />
        </mxCell>
        <mxCell id="1FDm_MmRjg4e-9KDtzbT-28" value="将数据哈希" style="rounded=0;whiteSpace=wrap;html=1;fillColor=#fff2cc;strokeColor=#d6b656;" parent="1" vertex="1">
          <mxGeometry x="125" y="440" width="105" height="40" as="geometry" />
        </mxCell>
        <mxCell id="s_8bfUnDOiDPgCtgCn1w-2" value="" style="edgeStyle=orthogonalEdgeStyle;rounded=0;orthogonalLoop=1;jettySize=auto;html=1;" parent="1" source="1FDm_MmRjg4e-9KDtzbT-29" target="s_8bfUnDOiDPgCtgCn1w-1" edge="1">
          <mxGeometry relative="1" as="geometry" />
        </mxCell>
        <mxCell id="1FDm_MmRjg4e-9KDtzbT-29" value="调用接口上链" style="rounded=0;whiteSpace=wrap;html=1;fillColor=#fff2cc;strokeColor=#d6b656;" parent="1" vertex="1">
          <mxGeometry x="285" y="440" width="105" height="40" as="geometry" />
        </mxCell>
        <mxCell id="s_8bfUnDOiDPgCtgCn1w-3" style="edgeStyle=orthogonalEdgeStyle;rounded=0;orthogonalLoop=1;jettySize=auto;html=1;" parent="1" source="s_8bfUnDOiDPgCtgCn1w-1" target="1FDm_MmRjg4e-9KDtzbT-2" edge="1">
          <mxGeometry relative="1" as="geometry">
            <Array as="points">
              <mxPoint x="503" y="500" />
              <mxPoint x="338" y="500" />
            </Array>
          </mxGeometry>
        </mxCell>
        <mxCell id="s_8bfUnDOiDPgCtgCn1w-1" value="将返回的链上地址存入数据库" style="rounded=0;whiteSpace=wrap;html=1;fillColor=#fff2cc;strokeColor=#d6b656;" parent="1" vertex="1">
          <mxGeometry x="450" y="440" width="105" height="40" as="geometry" />
        </mxCell>
        <mxCell id="ngoMZuvS446cqqw9m6Pp-3" value="" style="edgeStyle=orthogonalEdgeStyle;rounded=0;orthogonalLoop=1;jettySize=auto;html=1;" edge="1" parent="1" source="ngoMZuvS446cqqw9m6Pp-1" target="1FDm_MmRjg4e-9KDtzbT-3">
          <mxGeometry relative="1" as="geometry" />
        </mxCell>
        <mxCell id="ngoMZuvS446cqqw9m6Pp-1" value="举报人身份认证" style="rounded=0;whiteSpace=wrap;html=1;fillColor=#fff2cc;strokeColor=#d6b656;" vertex="1" parent="1">
          <mxGeometry x="127.5" y="140" width="100" height="40" as="geometry" />
        </mxCell>
      </root>
    </mxGraphModel>
  </diagram>
</mxfile>
